<svg width="181" height="143" viewBox="0 0 181 143" fill="none" xmlns="http://www.w3.org/2000/svg">
<path d="M83 127L0 77.8267V65.1986L82.4263 21V42.8123L24.4793 71.704L83 103.848V127Z" fill="#000175"/>
<path d="M134.14 143C125.78 143 117.567 141.67 109.5 139.009C101.433 136.201 98.3576 134.5 92.5 130.5L98.3576 116.519L101.024 108.574C107.68 113.046 112.816 115.559 120.94 118.834C124.607 120.164 128.493 120.829 132.6 120.829C137 120.829 140.667 120.017 143.6 118.391C146.68 116.617 149.027 114.252 150.64 111.296C152.253 108.192 153.06 104.719 153.06 100.876C153.06 96.4419 152.327 92.7468 150.86 89.7907C149.393 86.8346 147.193 84.5437 144.26 82.9178C141.473 81.1442 137.88 80.0356 133.48 79.5922C129.08 79.1488 123.873 79.2966 117.86 80.0357V58.0868C124.02 58.2346 129.227 57.8651 133.48 56.9783C137.733 56.0915 141.107 54.8351 143.6 53.2093C146.093 51.4357 147.853 49.3664 148.88 47.0015C149.907 44.6367 150.42 42.1979 150.42 39.6853C150.42 37.0248 149.98 34.6599 149.1 32.5907C148.367 30.5214 147.193 28.7478 145.58 27.2698C144.113 25.7917 142.28 24.6832 140.08 23.9442C138.027 23.2052 135.607 22.8357 132.82 22.8357C129.887 22.8357 126.953 23.2052 124.02 23.9442C119.123 25.178 106.937 28.9972 104 32.5907L93.0259 15.8889C98.4525 9.68114 104.807 6.65116 112.14 3.9907C119.473 1.33023 126.807 0 134.14 0C142.353 0 149.687 1.55194 156.14 4.65581C162.74 7.75969 167.873 12.046 171.54 17.5147C175.353 22.8357 177.26 28.9695 177.26 35.9163C177.26 41.0894 176.16 45.7452 173.96 49.8837C171.907 54.0222 169.193 57.4956 165.82 60.3039C162.593 63.1121 159.293 65.2553 155.92 66.7333C160.027 68.2114 163.987 70.4284 167.8 73.3845C171.613 76.3406 174.767 80.1835 177.26 84.9132C179.753 89.4951 181 95.1116 181 101.763C181 109.449 179.02 116.469 175.06 122.825C171.247 129.033 165.82 133.984 158.78 137.679C151.887 141.226 143.673 143 134.14 143Z" fill="#000175"/>
<path d="M133.121 120.994C129.014 120.994 125.127 120.329 121.461 118.998C113.336 115.724 107.722 114.636 101.066 110.164L83.5207 104.013L25 71.8683L82.947 42.9766L104.521 32.755C107.457 29.1615 119.644 25.3423 124.541 24.1085C127.474 23.3695 130.407 23 133.341 23C136.127 23 138.547 23.3695 140.601 24.1085C142.801 24.8475 144.634 25.9561 146.101 27.4341C147.714 28.9121 148.887 30.6858 149.621 32.755C150.501 34.8243 150.941 37.1891 150.941 39.8496C150.941 42.3623 150.427 44.801 149.401 47.1659C148.374 49.5307 146.614 51.6 144.121 53.3736C141.627 54.9995 138.254 56.2558 134.001 57.1426C129.747 58.0295 124.541 58.399 118.381 58.2512V80.2C124.394 79.461 129.601 79.3132 134.001 79.7566C138.401 80.2 141.994 81.3085 144.781 83.0822C147.714 84.708 149.914 86.999 151.381 89.955C152.847 92.9111 153.581 96.6062 153.581 101.04C153.581 104.883 152.774 108.357 151.161 111.46C149.547 114.417 147.201 116.781 144.121 118.555C141.187 120.181 137.521 120.994 133.121 120.994Z" fill="#00DADA"/>
</svg>
