<svg width="48" height="108" viewBox="0 0 48 108" fill="none" xmlns="http://www.w3.org/2000/svg">
<path d="M26.6667 105.333H29.3333V102.667H32V97.3333H37.3333V92H42.6667V86.6667H48V76H0V86.6667H5.33333V92H10.6667V97.3333H16V102.667H18.6667V105.333H21.3333V108H26.6667V105.333ZM21.3333 92H16V86.6667H10.6667V81.3333H5.33333V76H42.6667V81.3333H37.3333V86.6667H32V92H26.6667V97.3333H21.3333V92Z" fill="white"/>
<path d="M26.6667 67.3333H29.3333V64.6667H32V59.3333H37.3333V54H42.6667V48.6667H48V38H0V48.6667H5.33333V54H10.6667V59.3333H16V64.6667H18.6667V67.3333H21.3333V70H26.6667V67.3333ZM21.3333 54H16V48.6667H10.6667V43.3333H5.33333V38H42.6667V43.3333H37.3333V48.6667H32V54H26.6667V59.3333H21.3333V54Z" fill="white"/>
<path d="M26.6667 29.3333H29.3333V26.6667H32V21.3333H37.3333V16H42.6667V10.6667H48V0H0V10.6667H5.33333V16H10.6667V21.3333H16V26.6667H18.6667V29.3333H21.3333V32H26.6667V29.3333ZM21.3333 16H16V10.6667H10.6667V5.33333H5.33333V0H42.6667V5.33333H37.3333V10.6667H32V16H26.6667V21.3333H21.3333V16Z" fill="white"/>
</svg>
