<svg width="143" height="181" viewBox="0 0 143 181" fill="none" xmlns="http://www.w3.org/2000/svg">
<path d="M127 98L77.8267 181H65.1986L21 98.5737H42.8123L71.704 156.521L103.848 98H127Z" fill="#000175"/>
<path d="M143 46.86C143 55.22 141.67 63.4333 139.009 71.5C136.201 79.5667 134.5 82.6424 130.5 88.5L116.519 82.6424L108.574 79.9765C113.046 73.3201 115.559 68.1843 118.834 60.06C120.164 56.3933 120.829 52.5067 120.829 48.4C120.829 44 120.017 40.3333 118.391 37.4C116.617 34.32 114.252 31.9733 111.296 30.36C108.192 28.7467 104.719 27.94 100.876 27.94C96.4419 27.94 92.7468 28.6733 89.7907 30.14C86.8346 31.6067 84.5437 33.8067 82.9178 36.74C81.1442 39.5267 80.0356 43.12 79.5922 47.52C79.1488 51.92 79.2966 57.1267 80.0357 63.14H58.0868C58.2346 56.98 57.8651 51.7733 56.9783 47.52C56.0915 43.2667 54.8351 39.8933 53.2093 37.4C51.4357 34.9067 49.3664 33.1467 47.0015 32.12C44.6367 31.0933 42.1979 30.58 39.6853 30.58C37.0248 30.58 34.6599 31.02 32.5907 31.9C30.5214 32.6333 28.7478 33.8067 27.2698 35.42C25.7917 36.8867 24.6832 38.72 23.9442 40.92C23.2052 42.9733 22.8357 45.3933 22.8357 48.18C22.8357 51.1133 23.2052 54.0467 23.9442 56.98C25.178 61.8771 28.9972 74.0634 32.5907 77L15.8889 87.9741C9.68114 82.5475 6.65116 76.1933 3.9907 68.86C1.33023 61.5267 0 54.1933 0 46.86C0 38.6467 1.55194 31.3133 4.65581 24.86C7.75969 18.26 12.046 13.1267 17.5147 9.46001C22.8357 5.64668 28.9695 3.74001 35.9163 3.74001C41.0894 3.74001 45.7452 4.84 49.8837 7.04C54.0222 9.09333 57.4956 11.8067 60.3039 15.18C63.1121 18.4067 65.2553 21.7067 66.7333 25.08C68.2114 20.9733 70.4284 17.0133 73.3845 13.2C76.3406 9.38667 80.1835 6.23334 84.9132 3.74001C89.4951 1.24668 95.1116 0 101.763 0C109.449 0 116.469 1.98 122.825 5.94C129.033 9.75333 133.984 15.18 137.679 22.22C141.226 29.1133 143 37.3267 143 46.86Z" fill="#000175"/>
<path d="M120.994 47.8793C120.994 51.9859 120.329 55.8726 118.998 59.5393C115.724 67.6635 114.636 73.2778 110.164 79.9342L104.013 97.4793L71.8683 156L42.9766 98.053L32.755 76.4793C29.1615 73.5427 25.3423 61.3564 24.1085 56.4593C23.3695 53.5259 23 50.5926 23 47.6593C23 44.8726 23.3695 42.4526 24.1085 40.3993C24.8475 38.1993 25.9561 36.3659 27.4341 34.8993C28.9121 33.2859 30.6858 32.1126 32.755 31.3793C34.8243 30.4993 37.1891 30.0592 39.8496 30.0592C42.3623 30.0592 44.801 30.5726 47.1659 31.5993C49.5307 32.6259 51.6 34.3859 53.3736 36.8793C54.9995 39.3726 56.2558 42.7459 57.1426 46.9993C58.0295 51.2526 58.399 56.4593 58.2512 62.6192H80.2C79.461 56.6059 79.3132 51.3993 79.7566 46.9993C80.2 42.5993 81.3085 39.0059 83.0822 36.2193C84.708 33.2859 86.999 31.0859 89.955 29.6193C92.9111 28.1526 96.6062 27.4193 101.04 27.4193C104.883 27.4193 108.357 28.2259 111.46 29.8393C114.417 31.4526 116.781 33.7993 118.555 36.8793C120.181 39.8126 120.994 43.4793 120.994 47.8793Z" fill="#00DADA"/>
</svg>
